# xmcd
#
# Track frame offsets:
#	150
#	14377
#	25905
#	36660
#	51790
#	62005
#	75165
#	86562
#	98647
#	110120
#
# Disc length: 1583
#
# Revision: 2
# Processed by: cddbd v1.5.1PL0 Copyright (c) Steve Scherf et al.
# Submitted via: audiograbber 1.80
# Normalized: r1:DSETVAR1
#
DISCID=77062d0a
DTITLE=Various Artist - Country Classics Vol 2
DYEAR=1900
DGENRE=
TTITLE0=Tex Ritter - I Dreamed Of Hillbilly Heaven
TTITLE1=Freddy Fender - Before The Next Teardrop Falls
TTITLE2=Johnny Paycheck - Money (That's What I Want)
TTITLE3=Johnny Lee - Country Party
TTITLE4=Ferlin Husky - Gone
TTITLE5=Ronnie Dove - One Kiss For Old Time's Sake
TTITLE6=David Dudley - Six Days On The Road
TTITLE7=Del Reeves - Girl On The Billboard
TTITLE8=Porter Wagoner - Angel Band
TTITLE9=Bob Wills - Old San Antonio Rose
EXTD=
EXTT0=
EXTT1=
EXTT2=
EXTT3=
EXTT4=
EXTT5=
EXTT6=
EXTT7=
EXTT8=
EXTT9=
PLAYORDER=
